<svg width="25" height="24" viewBox="0 0 25 24" fill="none" xmlns="http://www.w3.org/2000/svg">
<path fill-rule="evenodd" clip-rule="evenodd" d="M7.31009 0.0694286C8.63643 0.0126234 9.05932 0 12.4379 0C15.8165 0 16.2394 0.0136753 17.5646 0.0694286C18.8898 0.125182 19.7944 0.321896 20.5859 0.606974C21.4147 0.898364 22.1666 1.35386 22.7885 1.94295C23.4217 2.52047 23.9102 3.21896 24.2222 3.99109C24.5298 4.72745 24.7401 5.56901 24.8012 6.79979C24.8622 8.03583 24.8758 8.42926 24.8758 11.5714C24.8758 14.7146 24.8611 15.1081 24.8012 16.342C24.7412 17.5728 24.5298 18.4144 24.2222 19.1507C23.9102 19.9229 23.4209 20.6226 22.7885 21.201C22.1666 21.7901 21.4147 22.2445 20.5859 22.5348C19.7944 22.821 18.8898 23.0166 17.5668 23.0734C16.2394 23.1302 15.8165 23.1429 12.4379 23.1429C9.05932 23.1429 8.63643 23.1292 7.31009 23.0734C5.98715 23.0177 5.08258 22.821 4.29108 22.5348C3.46104 22.2445 2.709 21.7893 2.08731 21.201C1.45453 20.6231 0.964859 19.9238 0.652425 19.1518C0.346 18.4154 0.135686 17.5738 0.0746274 16.3431C0.0135686 15.107 0 14.7136 0 11.5714C0 8.42821 0.0146993 8.03478 0.0746274 6.8019C0.134555 5.56901 0.346 4.72745 0.652425 3.99109C0.96532 3.21905 1.45537 2.51975 2.08844 1.9419C2.70925 1.35333 3.46053 0.897778 4.28995 0.606974C5.08145 0.321896 5.98602 0.126234 7.30896 0.0694286H7.31009ZM17.4639 2.15229C16.1523 2.09653 15.7588 2.08496 12.4379 2.08496C9.11698 2.08496 8.72349 2.09653 7.41186 2.15229C6.1986 2.20383 5.54052 2.39213 5.1018 2.55097C4.52174 2.76136 4.10677 3.01068 3.67144 3.41568C3.25878 3.78917 2.9412 4.24386 2.74199 4.74639C2.57125 5.15455 2.36885 5.76678 2.31345 6.89552C2.25352 8.11578 2.24108 8.48186 2.24108 11.5714C2.24108 14.661 2.25352 15.0271 2.31345 16.2473C2.36885 17.3761 2.57125 17.9883 2.74199 18.3965C2.941 18.8982 3.25873 19.3537 3.67144 19.7272C4.07285 20.1111 4.56245 20.4067 5.1018 20.5919C5.54052 20.7507 6.1986 20.939 7.41186 20.9906C8.72349 21.0463 9.11585 21.0579 12.4379 21.0579C15.76 21.0579 16.1523 21.0463 17.4639 20.9906C18.6772 20.939 19.3353 20.7507 19.774 20.5919C20.3541 20.3815 20.769 20.1322 21.2044 19.7272C21.6171 19.3537 21.9348 18.8982 22.1338 18.3965C22.3046 17.9883 22.5069 17.3761 22.5624 16.2473C22.6223 15.0271 22.6347 14.661 22.6347 11.5714C22.6347 8.48186 22.6223 8.11578 22.5624 6.89552C22.5069 5.76678 22.3046 5.15455 22.1338 4.74639C21.9077 4.20674 21.6397 3.82068 21.2044 3.41568C20.8029 3.03179 20.3142 2.73634 19.774 2.55097C19.3353 2.39213 18.6772 2.20383 17.4639 2.15229V2.15229ZM10.8492 15.1386C11.7365 15.4822 12.7244 15.5286 13.6443 15.2698C14.5642 15.011 15.359 14.4631 15.8929 13.7198C16.4269 12.9764 16.6669 12.0836 16.5719 11.1939C16.4769 10.3042 16.0528 9.47276 15.3721 8.84162C14.9382 8.43818 14.4135 8.12926 13.8358 7.9371C13.2582 7.74495 12.6419 7.67434 12.0314 7.73036C11.4209 7.78638 10.8313 7.96764 10.3051 8.26109C9.77897 8.55453 9.32927 8.95286 8.98842 9.4274C8.64758 9.90194 8.42407 10.4409 8.33398 11.0054C8.24389 11.57 8.28947 12.1461 8.46743 12.6923C8.64539 13.2385 8.95131 13.7412 9.36316 14.1642C9.77502 14.5872 10.2826 14.92 10.8492 15.1386ZM7.91729 7.36574C8.51094 6.81344 9.21572 6.37533 9.99136 6.07643C10.767 5.77753 11.5983 5.62369 12.4379 5.62369C13.2775 5.62369 14.1088 5.77753 14.8844 6.07643C15.6601 6.37533 16.3649 6.81344 16.9585 7.36574C17.5522 7.91804 18.0231 8.57371 18.3444 9.29533C18.6656 10.0169 18.831 10.7904 18.831 11.5714C18.831 12.3525 18.6656 13.1259 18.3444 13.8475C18.0231 14.5691 17.5522 15.2248 16.9585 15.7771C15.7596 16.8925 14.1335 17.5192 12.4379 17.5192C10.7423 17.5192 9.11623 16.8925 7.91729 15.7771C6.71835 14.6617 6.04479 13.1489 6.04479 11.5714C6.04479 9.99399 6.71835 8.48116 7.91729 7.36574V7.36574ZM20.2489 6.50945C20.396 6.38035 20.5138 6.22509 20.5952 6.05288C20.6767 5.88067 20.7202 5.695 20.7231 5.50687C20.7261 5.31875 20.6884 5.13198 20.6124 4.95763C20.5364 4.78328 20.4235 4.6249 20.2805 4.49186C20.1375 4.35882 19.9673 4.25382 19.7799 4.18309C19.5925 4.11236 19.3917 4.07733 19.1895 4.08007C18.9873 4.08281 18.7877 4.12327 18.6026 4.19906C18.4175 4.27484 18.2506 4.38441 18.1118 4.52127C17.842 4.78745 17.6942 5.141 17.6999 5.50687C17.7057 5.87275 17.8644 6.22215 18.1426 6.48089C18.4207 6.73963 18.7962 6.88734 19.1895 6.89268C19.5828 6.89801 19.9628 6.76054 20.2489 6.50945V6.50945Z" fill="white"/>
</svg>
