<svg width="24" height="24" viewBox="0 0 24 24" fill="none" xmlns="http://www.w3.org/2000/svg">
<path d="M21.2987 0H1.8615C0.833768 0 0 0.833143 0 1.86011V21.2827C0 22.3097 0.833768 23.1429 1.8615 23.1429H21.2987C22.3265 23.1429 23.1602 22.3097 23.1602 21.2827V1.86011C23.1602 0.833143 22.3265 0 21.2987 0V0ZM21.2987 21.2914C8.33479 21.2885 1.85282 21.2856 1.85282 21.2827C1.85571 8.32854 1.85861 1.85143 1.8615 1.85143C14.8254 1.85432 21.3074 1.85721 21.3074 1.86011C21.3045 14.8143 21.3016 21.2914 21.2987 21.2914ZM3.4335 8.67568H6.8699V19.7206H3.4335V8.67568ZM5.15315 7.16561C6.25037 7.16561 7.14493 6.27461 7.14493 5.17532C7.14493 4.91395 7.09341 4.65514 6.99332 4.41367C6.89322 4.1722 6.74651 3.95279 6.56155 3.76798C6.3766 3.58316 6.15703 3.43656 5.91537 3.33654C5.67372 3.23652 5.41472 3.18504 5.15315 3.18504C4.89159 3.18504 4.63258 3.23652 4.39093 3.33654C4.14928 3.43656 3.9297 3.58316 3.74475 3.76798C3.5598 3.95279 3.41308 4.1722 3.31299 4.41367C3.21289 4.65514 3.16137 4.91395 3.16137 5.17532C3.15848 6.27461 4.05015 7.16561 5.15315 7.16561ZM12.4573 14.256C12.4573 12.8154 12.7323 11.421 14.5186 11.421C16.2787 11.421 16.3048 13.067 16.3048 14.3486V19.7206H19.7383V13.663C19.7383 10.6891 19.0956 8.40086 15.6187 8.40086C13.9482 8.40086 12.8279 9.31789 12.3676 10.1857H12.3212V8.67568H9.02381V19.7206H12.4573V14.256Z" fill="#FFF9F9"/>
</svg>
