<svg width="28" height="24" viewBox="0 0 28 24" fill="none" xmlns="http://www.w3.org/2000/svg">
<path d="M13.7246 0C11.0101 0 8.35661 0.703788 6.09962 2.02236C3.84262 3.34094 2.08351 5.21508 1.04473 7.4078C0.00594661 9.60051 -0.265846 12.0133 0.26372 14.3411C0.793286 16.6689 2.10042 18.807 4.01984 20.4853C5.93926 22.1635 8.38474 23.3064 11.0471 23.7694C13.7094 24.2324 16.4689 23.9948 18.9768 23.0866C21.4846 22.1783 23.6281 20.6402 25.1362 18.6668C26.6442 16.6935 27.4492 14.3734 27.4492 12C27.4457 8.81834 25.9986 5.76787 23.4255 3.51809C20.8524 1.26832 17.3635 0.00305488 13.7246 0ZM13.7246 22.1538C11.4277 22.1538 9.18245 21.5583 7.27269 20.4426C5.36292 19.3269 3.87444 17.7411 2.99547 15.8857C2.11651 14.0303 1.88653 11.9887 2.33462 10.0191C2.78272 8.04943 3.88876 6.24019 5.51288 4.82015C7.137 3.40011 9.20626 2.43305 11.459 2.04126C13.7117 1.64947 16.0467 1.85055 18.1687 2.61907C20.2907 3.38759 22.1045 4.68903 23.3805 6.35882C24.6566 8.02862 25.3377 9.99176 25.3377 12C25.3342 14.692 24.1096 17.2729 21.9324 19.1765C19.7553 21.08 16.8035 22.1508 13.7246 22.1538ZM21.4051 10.1538C21.3424 10.2626 21.2554 10.3593 21.1493 10.4381C21.0431 10.517 20.92 10.5765 20.7872 10.613C20.6543 10.6496 20.5144 10.6625 20.3757 10.651C20.2371 10.6396 20.1025 10.6039 19.9798 10.5462C18.0383 9.68005 15.8894 9.22946 13.7098 9.23146C11.5302 9.23347 9.38234 9.68801 7.44295 10.5577C7.29194 10.6257 7.12456 10.6613 6.95467 10.6615C6.7192 10.6593 6.49132 10.5884 6.30729 10.4599C6.12325 10.3314 5.99362 10.1529 5.93901 9.95258C5.8844 9.7523 5.90794 9.5418 6.00589 9.35456C6.10384 9.16732 6.27058 9.01409 6.47959 8.91923C8.71582 7.91226 11.1944 7.38594 13.7098 7.38394C16.2252 7.38193 18.7049 7.90429 20.9432 8.90769C21.0674 8.96267 21.178 9.03861 21.2686 9.13112C21.3591 9.22363 21.4278 9.33089 21.4708 9.44672C21.5137 9.56255 21.53 9.68466 21.5187 9.80602C21.5074 9.92738 21.4688 10.0456 21.4051 10.1538ZM19.452 13.4192C19.3891 13.5279 19.3022 13.6246 19.1964 13.7037C19.0906 13.7829 18.9679 13.843 18.8355 13.8805C18.703 13.918 18.5633 13.9323 18.4245 13.9224C18.2857 13.9126 18.1505 13.8788 18.0267 13.8231C16.6892 13.2292 15.2099 12.9206 13.7098 12.9226C12.2097 12.9246 10.7315 13.2371 9.39606 13.8346C9.2492 13.9013 9.08646 13.9369 8.92098 13.9385C8.67955 13.9442 8.44314 13.8775 8.25121 13.7493C8.05927 13.6211 7.92341 13.4392 7.86629 13.2341C7.80916 13.0289 7.83423 12.8128 7.93731 12.6218C8.04038 12.4308 8.21524 12.2765 8.4327 12.1846C10.0676 11.4562 11.8765 11.0765 13.7114 11.0765C15.5463 11.0765 17.3552 11.4562 18.9901 12.1846C19.2376 12.2957 19.4249 12.4877 19.5114 12.7189C19.5979 12.9501 19.5765 13.2017 19.452 13.4192ZM17.4988 16.6962C17.3692 16.9134 17.1472 17.0774 16.8807 17.1529C16.6141 17.2285 16.3243 17.2095 16.0736 17.1C15.3398 16.7792 14.5302 16.6131 13.7098 16.6151C12.8894 16.6171 12.0809 16.7871 11.3492 17.1115C11.1993 17.1694 11.0379 17.2008 10.8741 17.2038C10.6386 17.2016 10.4107 17.1307 10.2267 17.0022C10.0427 16.8737 9.91305 16.6952 9.85843 16.4949C9.80382 16.2946 9.82736 16.0841 9.92531 15.8969C10.0233 15.7096 10.19 15.5564 10.399 15.4615C11.4287 15.0026 12.5688 14.7652 13.7246 14.7692C14.87 14.7683 15.9997 15.0014 17.0238 15.45C17.1491 15.504 17.261 15.5792 17.3529 15.6712C17.4448 15.7633 17.5149 15.8704 17.5591 15.9863C17.6033 16.1022 17.6207 16.2246 17.6104 16.3465C17.6 16.4684 17.5621 16.5872 17.4988 16.6962Z" fill="white"/>
</svg>
